<?xml version="1.0" encoding="UTF-8"?>
<svg id="social_media_logos" data-name="social media logos" xmlns="http://www.w3.org/2000/svg" viewBox="0 0 50 50">
  <defs>
    <style>
      .cls-1 {
        fill: #fff;
      }
    </style>
  </defs>
  <path id="Bluesky" class="cls-1" d="M10.9,6.04c5.71,4.28,11.84,12.97,14.1,17.63,2.25-4.66,8.39-13.35,14.1-17.63,4.12-3.09,10.79-5.48,10.79,2.13,0,1.52-.87,12.77-1.38,14.59-1.78,6.35-8.25,7.97-14.01,6.99,10.06,1.71,12.63,7.39,7.1,13.06-10.5,10.78-15.09-2.7-16.27-6.16-.22-.63-.32-.93-.32-.68,0-.25-.1.04-.32.68-1.18,3.45-5.77,16.93-16.27,6.16-5.53-5.67-2.97-11.35,7.1-13.06-5.76.98-12.23-.64-14.01-6.99C.99,20.93.12,9.69.12,8.17.12.56,6.79,2.95,10.9,6.04h0Z"/>
</svg>