<?xml version="1.0" encoding="UTF-8"?>
<svg id="Early_Detection" xmlns="http://www.w3.org/2000/svg" viewBox="0 0 929 655">
  <defs>
    <style>
      .cls-1 {
        fill: #fff;
      }
    </style>
  </defs>
  <path class="cls-1" d="M299.8,15.76c-2.68.64-6.65,2.04-8.95,3.2-5.24,2.81-28.37,19.43-39.88,28.76l-8.95,7.41-15.98-2.56c-19.3-2.94-50.48-3.2-66.46-.64-18.4,2.94-32.21,7.16-36.04,11.12-1.92,1.92-6.13,4.98-9.33,6.77-11.37,6.26-30.55,20.45-38.21,28.12-17.38,17.77-28.25,36.04-37.19,62.75-5.88,17.51-7.54,30.29-6.65,52.91.77,22.49,3.32,33.36,12.4,52.27,8.18,17.13,15.59,27.61,29.78,41.54l11.25,11.25-7.03,12.4c-12.78,22.49-22.24,51-27.35,82.05-3.07,19.04-3.07,75.28.13,95.22,3.96,25.05,17.64,70.17,24.41,80.26,1.53,2.3,4.6,5.24,6.9,6.65l4.09,2.56-.13,18.28c-.13,16.36.13,18.53,2.3,20.07,1.92,1.53,23.01,1.79,131.77,1.92h129.47l4.6,3.45,4.6,3.58,225.45.38c155.41.13,226.22-.13,227.88-1.02,3.45-1.92,3.58-9.59.13-11.5-1.41-.64-8.69-1.28-16.23-1.28-12.4,0-13.55-.26-12.91-2.3.38-1.15,4.22-12.27,8.44-24.54,14.06-41.15,21.09-76.68,23.39-119.24l1.53-26.46h41.54c32.72.13,41.67-.26,42.43-1.53,2.43-3.83,3.71,1.79-31.31-142.89-9.71-39.75-22.11-91.25-27.73-114.39-5.62-23.26-12.27-50.23-14.57-60.07-3.32-13.29-5.11-18.53-7.16-20.19-2.56-2.04-9.33-2.17-101.35-2.17h-98.54l-5.11-9.2c-6.9-12.53-24.54-30.03-40.9-41.03-7.16-4.6-21.73-12.78-32.59-18.02-37.83-18.28-77.83-28.76-128.96-34-15.85-1.53-106.08-1.53-112.98.13ZM403.71,29.82c71.32,6.26,141.99,31.06,179.57,63.01l4.98,4.22-49.72.77c-27.48.51-63.26.89-79.75.89-20.19,0-30.42.51-31.57,1.41-2.56,2.17-2.17,8.82,1.28,21.34,1.79,6.13,12.65,47.93,24.28,92.92,11.63,44.99,24.03,92.66,27.61,106.08,3.45,13.29,12.53,47.8,19.94,76.68,17.25,67.1,17.89,69.27,21.47,71.57,2.43,1.53,8.95,1.79,40.13,1.53l37.32-.26v14.83c0,25.82-5.11,68.12-11.89,97.01l-1.53,7.03-114.39.64c-128.19.77-119.24,0-125.89,10.1-3.32,4.86-6.01,16.36-4.86,20.7.64,2.17-1.02,2.3-28.5,2.68-16.1.26-70.42.38-120.65.38h-91.38l-.26-11.25-.13-11.37,3.32.77c17.25,3.58,37.96,4.98,76.3,4.98,65.18.13,94.32-4.98,122.7-21.22,12.01-6.9,34.38-29.27,40.64-40.51,9.2-16.87,16.74-44.73,20.19-75.28,2.3-20.96.77-76.68-2.56-92.15-3.96-18.53-10.99-31.57-23.77-44.09-19.04-18.79-42.94-33.61-59.43-37.06-5.24-1.02-13.93-3.07-19.17-4.47-16.74-4.35-34.25-6.39-62.5-7.29l-27.22-.77.77-6.52c.38-3.58,2.3-17.89,4.22-31.7l3.45-25.18,3.58,6.26c3.32,5.88,9.33,12.65,16.49,18.53,1.66,1.53,4.86,5.37,7.16,8.56,4.98,7.29,14.31,14.31,22.11,16.61,7.03,2.04,24.16,1.92,33.36-.26,16.36-3.83,32.72-15.72,43.07-31.18,7.16-10.61,10.61-19.17,14.57-35.27,3.71-14.95,3.96-45.12.51-58.15-5.37-20.32-18.4-38.47-35.53-49.21l-7.03-4.47.64-7.8c.89-11.37-4.47-19.3-14.7-22.11-3.2-.89-2.81-1.28,7.29-9.07,5.75-4.6,13.16-10.48,16.49-13.29,3.2-2.68,8.82-6.26,12.27-7.92q6.39-3.07,50.48-2.94c24.28.13,49.59.64,56.24,1.28ZM214.42,65.48c13.68,1.41,31.95,5.5,42.18,9.2,6.65,2.56,6.77,2.68,6.13,6.9-.38,2.43-2.56,7.67-4.86,11.5-5.24,9.2-9.33,11.12-19.81,9.33-18.15-3.07-23.13-3.32-49.59-2.3-15.34.64-29.01,1.41-30.29,1.79-4.47,1.41-13.55-3.83-17.64-10.35-4.86-7.54-6.52-16.87-3.45-19.04,1.92-1.41,24.41-6.26,34.64-7.41,8.31-1.02,31.31-.77,42.69.38ZM122.4,88.48c.89,3.45,2.68,7.67,4.09,9.46l2.43,3.07-5.5,3.32c-7.8,4.47-26.07,24.28-32.34,34.76-12.01,20.45-15.98,34-16.74,57.39-1.15,34.12,7.41,56.49,31.44,81.54l10.22,10.61-6.01,3.07c-3.32,1.79-8.44,5.62-11.37,8.44l-5.24,5.37-10.22-10.48c-14.83-15.21-24.54-30.67-30.67-48.69-4.86-14.44-6.01-22.49-5.88-42.18.13-16.61.51-20.83,3.45-31.44,7.03-25.94,20.7-48.95,40.77-68.5,8.05-7.92,26.71-22.11,29.14-22.11.38,0,1.53,2.81,2.43,6.39ZM276.28,110.08c21.6,15.98,30.03,36.04,28.63,67.74-.89,19.43-3.2,29.27-9.84,43.07-10.99,22.75-26.46,33.74-50.61,35.79-10.74,1.02-16.74-.64-23.01-6.13l-4.47-3.96,4.86-2.17c6.26-2.81,11.5-8.69,18.28-19.81,2.94-4.98,8.31-12.91,11.89-17.77,9.59-13.29,12.78-21.22,13.42-33.36.38-8.05,0-12.01-2.3-18.53-5.5-16.49-16.87-28.88-30.42-32.72-8.18-2.43-17.51-1.79-23.26,1.66-4.73,2.68-5.88,1.66-3.83-3.45s5.11-5.75,20.96-4.47c21.34,1.79,26.97,1.41,32.46-2.43,2.56-1.79,5.5-4.47,6.39-5.88,2.17-3.58,3.2-3.32,10.86,2.43ZM144.77,114.17c5.5,2.43,7.41,2.56,26.33,1.66l20.45-.89-2.04,5.11c-1.41,3.71-3.07,5.5-6.01,6.52-17.38,6.26-30.42,33.74-25.18,52.66.64,2.56,3.32,7.92,5.75,12.01l4.47,7.41-2.56,8.44c-3.32,10.86-7.03,31.7-9.71,55.98l-2.17,19.43-9.97.77c-6.13.64-10.86.38-12.4-.38-4.86-2.56-26.58-26.71-31.31-34.76-2.68-4.47-6.26-12.78-8.18-18.4-3.07-9.07-3.45-12.27-3.45-28.12-.13-15.21.38-19.3,2.81-27.1,6.77-21.6,21.86-43.84,38.09-56.36,4.6-3.71,8.69-6.65,8.82-6.65s2.94,1.15,6.26,2.68ZM604.36,114.69l2.94,3.2h-64.67c-63.14,0-64.93.13-67.35,2.56-1.53,1.53-2.56,4.22-2.56,6.52s18.4,76.94,40.9,166.02c22.49,89.21,40.9,162.44,40.9,162.83s-5.5.77-12.14.77h-12.14l-.77-3.58c-1.53-6.13-47.8-186.98-51.63-201.55-2.04-7.8-6.9-26.2-10.74-40.9-3.83-14.83-11.12-42.3-15.98-61.09-4.98-18.92-9.07-34.89-9.07-35.53s33.61-1.28,78.98-1.53c43.33-.13,79.24-.38,79.62-.64.38-.13,2.04,1.15,3.71,2.94ZM810.64,135.39c.38,1.28,8.18,33.1,17.25,70.68,9.07,37.58,20.96,86.14,26.33,108,20.83,84.99,31.31,128.32,31.31,129.6,0,1.02-47.93,1.41-158.99,1.41-150.43,0-159.12-.13-159.76-2.3-.38-1.15-4.73-18.02-9.59-37.32-4.98-19.3-16.74-65.95-26.33-103.52-9.59-37.58-22.88-89.98-29.52-116.3-6.65-26.33-12.4-48.95-12.78-50.23-.64-2.04,7.54-2.17,160.4-2.17s161.04.13,161.68,2.17ZM230.66,137.18c5.24,1.92,12.14,9.2,15.98,16.74,4.47,8.95,5.88,17.51,3.83,24.79-1.41,5.11-23.13,40.26-30.16,48.82-8.18,9.84-19.81,5.37-28.5-11.12-2.3-4.09-4.09-7.67-4.09-7.92s3.2-.26,7.03-.13c18.28,1.15,34.38-12.27,39.75-32.97,1.66-6.52,1.79-9.46.64-14.83-1.41-7.54-6.13-17.64-10.22-21.86-4.47-4.73-3.32-4.98,5.75-1.53ZM209.06,141.91c6.26,4.98,11.76,14.95,12.78,23.26.64,5.5.13,7.54-3.32,14.7-5.11,10.35-11.12,14.83-21.09,15.72-19.68,1.66-32.59-22.11-22.62-41.67,8.05-15.85,22.88-21.09,34.25-12.01ZM206.24,299.37c29.65,1.41,39.11,2.68,34.51,4.47-34.12,13.55-36.04,14.06-63.26,13.93-28.5,0-50.48-3.83-60.71-10.61l-3.71-2.56,5.88-2.68c12.27-5.37,21.34-5.62,87.29-2.56ZM272.06,309.72c4.09.89,6.39,2.04,6.39,3.2,0,2.81-9.84,32.72-15.59,47.16-5.88,14.7-15.21,33.74-22.88,46.27-19.17,31.57-49.33,58.41-76.43,68.12-6.01,2.17-12.01,4.98-13.16,6.01-3.2,2.94-2.81,7.67.77,9.97,3.96,2.56,11.25,1.02,25.69-5.75,26.84-12.27,53.81-36.81,72.59-65.95,13.29-20.58,30.55-59.43,38.73-87.42,1.92-6.65,3.71-12.4,3.96-12.65.13-.26,3.96,1.66,8.31,4.35,26.97,16.49,40.51,33.23,45.12,55.34,6.01,29.14,5.75,70.93-.77,109.79-3.32,20.7-6.65,32.08-12.65,44.6-15.59,32.46-43.58,50.23-90.1,57.39-18.92,2.81-70.55,3.96-97.13,2.04-25.18-1.79-35.66-3.32-47.54-6.77l-9.2-2.68-3.96-10.99c-6.26-17.13-13.68-42.94-16.49-57-11.37-57.51-3.96-121.29,20.07-172.41,3.58-7.54,8.69-16.74,11.25-20.32,2.68-3.71,4.98-6.77,5.11-7.03s3.71,1.92,8.05,4.6c6.65,4.35,23.9,10.48,29.27,10.48,1.92,0,2.3-2.04-2.94,16.61-5.62,19.94-5.88,28.76-1.15,38.09,6.39,12.91,19.55,19.43,39.36,19.43,13.04,0,20.58-2.43,28.25-9.2,7.54-6.65,10.22-12.14,19.17-39.36,3.96-12.27,8.82-25.18,10.61-28.63,2.94-5.37,4.35-6.39,10.1-8.31,6.65-2.3,15.72-7.67,15.72-9.46,0-1.28,3.83-1.15,11.5.51ZM215.96,332.98c-1.28,3.07-4.47,12.91-7.16,21.98-5.37,18.4-7.92,24.28-12.4,28.25-9.33,8.31-29.01,9.07-39.75,1.53-4.22-3.07-8.56-11.12-8.56-15.98,0-1.92,1.79-10.99,4.09-20.19l4.09-16.61,23.13-.26c15.08-.13,25.43-.89,30.03-2.04,3.83-1.02,7.41-1.92,7.92-2.04s-.13,2.3-1.41,5.37ZM681.3,464.49c.38,12.65-.51,33.61-2.3,50.87-4.09,38.6-12.78,71.83-25.69,98.67l-8.44,17.64h-30.67c-23.9,0-30.42-.38-29.91-1.66,14.57-35.15,19.04-50.23,23.9-82.05,2.94-19.17,5.11-50.61,5.11-73.23v-15.59h67.74l.26,5.37ZM743.67,473.57c0,29.01-8.56,81.92-18.02,111.7l-1.41,4.22h-23.01c-21.47,0-23.01-.13-22.11-2.3.51-1.15,2.81-9.71,5.11-18.79,6.9-27.48,10.86-61.22,10.86-91.77v-17.51h48.57v14.44ZM801.19,477.4c0,43.33-12.14,100.58-32.08,150.68l-1.41,3.58h-20.32c-11.25,0-20.32-.51-20.32-1.15s3.96-14.7,8.95-31.31c14.95-51.12,20.07-78.73,21.22-115.15.38-12.01.89-22.49,1.15-23.39.38-1.15,5.88-1.53,21.73-1.53h21.09v18.28ZM576.63,612.11c-1.79,4.86-4.09,11.12-5.24,14.06l-2.04,5.5h-102.63c-73.87,0-103.4-.38-105.7-1.41-5.75-2.68-8.69-12.27-6.01-19.43,2.94-7.8-5.24-7.29,115.15-7.29h109.79l-3.32,8.56ZM719.39,604.19c0,.38-1.53,6.77-3.32,14.06l-3.32,13.42h-25.56c-23.9,0-25.56-.13-24.67-2.3.38-1.15,3.2-7.54,6.13-13.93l5.37-11.89h22.75c12.4,0,22.62.26,22.62.64Z"/>
  <path class="cls-1" d="M404.98,322.37c-3.2,3.2-3.2,5.11.51,23.01,2.94,13.55,5.75,36.17,8.05,62.63,1.66,19.55.89,81.03-1.41,105.95-1.92,21.47-1.92,23.77-.13,25.56,2.56,2.56,37.19,3.71,41.54,1.41,4.09-2.17,4.73-5.24,7.03-31.18,4.73-54.96,1.92-105.57-9.46-165.77-4.73-25.18-3.58-24.16-26.46-24.16-15.46,0-17.38.26-19.68,2.56ZM435.66,340.01c3.58,13.42,9.59,56.62,11.63,84.35,1.66,21.22.77,69.14-1.53,89.21l-1.53,13.04-8.44.51c-4.6.38-8.69.51-9.07.26-.38-.13-.26-6.01.38-12.91,1.53-15.85,1.79-81.67.64-102.63-1.28-20.96-6.65-63.26-9.46-74.77-.64-2.43-.13-2.56,7.67-2.17l8.44.51,1.28,4.6Z"/>
</svg>