<?xml version="1.0" encoding="UTF-8"?>
<svg id="FG_Banner" data-name="FG Banner" xmlns="http://www.w3.org/2000/svg" xmlns:xlink="http://www.w3.org/1999/xlink" viewBox="0 0 1326.86 554.9">
  <defs>
    <style>
      .cls-1 {
        font-family: Roboto-Light, Roboto;
        font-variation-settings: 'wght' 300, 'wdth' 100;
        font-weight: 300;
      }

      .cls-2 {
        letter-spacing: .02em;
      }

      .cls-2, .cls-3, .cls-4, .cls-5 {
        font-family: Roboto-Bold, Roboto;
        font-variation-settings: 'wght' 700, 'wdth' 100;
      }

      .cls-3 {
        letter-spacing: -.02em;
      }

      .cls-6 {
        font-weight: 700;
      }

      .cls-7 {
        font-size: 200px;
      }

      .cls-7, .cls-8 {
        fill: #2bff87;
      }

      .cls-9 {
        font-family: Roboto-CondensedBold, Roboto;
        font-variation-settings: 'wght' 700, 'wdth' 75;
      }

      .cls-10 {
        fill: url(#linear-gradient);
      }

      .cls-5 {
        letter-spacing: -.01em;
      }
    </style>
    <linearGradient id="linear-gradient" x1="183.53" y1="236.57" x2="362.36" y2="339.82" gradientUnits="userSpaceOnUse">
      <stop offset="0" stop-color="#000"/>
      <stop offset=".17" stop-color="#000301"/>
      <stop offset=".32" stop-color="#000e06"/>
      <stop offset=".47" stop-color="#00200d"/>
      <stop offset=".6" stop-color="#003918"/>
      <stop offset=".74" stop-color="#005926"/>
      <stop offset=".87" stop-color="#008137"/>
      <stop offset=".99" stop-color="#00b04b"/>
      <stop offset="1" stop-color="#00b34d"/>
    </linearGradient>
  </defs>
  <g id="Layer_2" data-name="Layer 2">
    <path class="cls-8" d="M82.24,105.52v67.83h56.77v28.38h-56.77c-.08,2.1-.16,4.2-.24,6.3-.18,5.64-.4,11.31-.61,16.97-.29,8.25-.61,16.52-.9,24.77-.37,9.92-.72,19.82-1.09,29.74-.4,10.59-.77,21.2-1.17,31.79-.32,8.62-.61,17.24-.93,25.88l-3.54,47.99c.24,4.42.29,7.87-.21,8.03,2.98-1.04,6.01-1.97,9.07-2.69,3.78-.9,7.9-.85,11.54.64,3.8,1.52,7.13,4.26,10.03,7.08,1.7,1.62,3.3,3.35,4.87,5.11,5.48,6.2,10.53,13.01,13.25,20.83.53,1.46.65,2.67.68,4.24-2.49,1.25-1.48-.77-2.01-1.75-.53-.96-.93-2.1-1.25-3.16-2.24-7.71-7.42-14.21-12.93-20.03-2.87-3.03-5.9-5.99-9.44-8.22-2.42-1.52-5.16-2.74-8.03-3.3-1.62-.32-3.17-.35-4.74-.21-1.38.13-2.77.45-4.18.85-1.46.43-2.93.93-4.34,1.52-.21.08-2.29.88-2.29.98.11.61.24,1.25.27,1.92,4.97,5.61,10.03,11.2,15,16.81,2.47,2.77,5.45,5.8,9.18,5.72,1.54-.03,2.95-.64,4.04-1.68.82-.74,1.12-1.76,1.57-2.74.82-1.52,1.49-.21,1.57.96.08,1.44-.77,3.06-1.84,4.04-1.81,1.76-4.52,2.34-6.92,1.73-3.38-.8-5.96-3.48-8.3-6.06-4.71-5.03-9.42-10.19-14.1-15.24-.43,1.46-2.02,2.42-4.04,2.82-1.33,3.99-1.78,8.25-1.33,12.37.11,1.2.29,2.39.93,3.38.4.64,1.46,1.01,1.38,1.84,0,.05-.05.19-.08.32-.37.8-1.38.83-2.02.37-.66-.53-1.33-1.09-1.86-1.81-1.04-1.52-1.04-3.62-.82-5.48.27-2.34.69-4.58.77-6.92.08-1.2,0-2.5-.27-3.7-1.22,0-2.53-.13-3.67-.42-.43,1.3-.43,2.53-.53,3.91-.13,1.22-1.36,8.3-3.62,9.2-.27.11-.56.11-.88.03-1.06-.35-.53-2.23-.16-2.95.59-1.25,1.65-2.37,2.18-3.67.29-.72,2.1-6.7,1.22-7.05-.9-.37-1.65-.82-2.21-1.38-6.14.05-11.86,3.94-16.97,7.61-.85.64-1.76,1.3-2.24,2.18-.45.98-.45,2.08-.45,3.11-.03,3.33,0,6.6.08,9.87-.03.53-.03,3.67-.88,3.91-.16.05-.35,0-.56-.13-.64-.51-.72-1.92-.77-2.63-.16-1.89.24-3.78.24-5.69,0-.03-.08-9.55-.08-9.55,0-.56-.03-1.12.27-1.65.26-.56.8-.9,1.38-1.25,2.74-1.76,5.56-3.22,8.49-4.63,4.41-2.13,10.69-2.42,11.86-7.71.72-3.19,1.01-6.44,1.01-9.66v-.13l-6.68-70.41c-.29-10-.58-20.03-.88-30.06-.27-9.55-.56-19.1-.82-28.65-.24-8.27-.48-16.55-.72-24.82-.19-6.17-.35-12.37-.53-18.54-.11-3.3-.19-6.57-.29-9.87,0-.03-.03-.96-.03-.96H.23v-28.38h50.46v-79.4c0-15.77,2.37-28.81,7.1-39.16,4.73-10.35,10.59-18.67,17.61-24.98,7-6.3,14.79-10.77,23.38-13.41,8.59-2.63,16.73-3.94,24.45-3.94,14.74,0,26.82,2.1,36.29,6.3l-6.3,27.35c-7.02-3.51-16.49-5.27-28.38-5.27-28.41,0-42.59,21.55-42.59,64.67"/>
    <path class="cls-8" d="M182.91,485.24c-9.8-4.54-19.64-9.08-25.86-18.22-.44-.65,7.13-10.1,7.83-11.08,2.91-4.06,5.75-8.18,8.3-12.47.99-1.66,1.95-3.39,2.23-5.3.28-1.91-.27-4.05-1.82-5.2-.81-.6-2.32-.6-2.47.39-.04.3.06.59.2.86.75,1.52,1.25,2.19,1.43,3.88.24,2.23-.95,4.2-2.61,5.72-4.42,4.04-6.41,9.43-9.89,14.29-1.65,2.31-5.84,7.95-7.62,3.78-1.17-2.75-.48-6.52-.19-9.4.45-4.46.44-9.15-1.62-13.25-2-3.99-5.66-6.85-8.56-10.25-3.88-4.54-6.51-10.35-6.37-16.32.14-5.97,3.38-12,8.74-14.63,3.36-1.65,7.23-1.91,10.79-3.09.83-.28,1.82-.87,1.66-1.74-.17-.96-1.5-1.08-2.47-.93-4.74.78-9.38,2.49-13.18,5.42-3.8,2.93-6.72,7.13-7.63,11.84-1.46,7.56,2.32,15.26,7.47,20.99,2.67,2.97,5.78,5.67,7.52,9.27,2.56,5.28,1.71,11.5.76,17.29-.2,1.23-.41,2.49-1.01,3.58-1.06,1.94-3.31,3.01-4.23.48-1.16-3.16-2.76-6.24-5.23-8.54-2.46-2.3-5.9-3.72-9.23-3.18-3.21.52-6.41,2.77-9.44,1.58-2.46-.96-3.58-3.84-3.79-6.47-.2-2.55.21-5.15,1.18-7.51.69-1.68,1.65-3.23,2.27-4.93.62-1.7,1.24-3.95.47-5.58-.13-.27-.48-.55-.74-.7-.95-.52-1.95,1.18-2.13,2.24-.66,3.79-1.32,7.59-1.98,11.38-.43,2.46-.85,4.97-.43,7.43s1.88,4.89,4.2,5.79c4.94,1.92,10.81-3.68,15.45-1.11,1.24.69,2.12,1.86,2.97,2.99,1.79,2.4,4.1,5.15,4.87,8.1,1.07,4.13-3.44.67-5.57.36-2.54-.37-5.12-.23-7.68-.18-4.14.07-8.67-.24-11.76-3.01-2.39-2.14-3.54-5.43-6.02-7.46-.19-.16-.41-.31-.66-.32-.71-.03-.9.98-.75,1.67.9,4.34,4.88,7.47,9.07,8.92,4.2,1.44,8.71,1.57,13.1,2.21,3.14.46,11.35,1.9,12.38,5.72.77,2.85-4.25,3.03-6.23,3.73-2.73.97-5.62,3.05-8.36,4.02-6.64,2.34-12.12,7.19-16.67,12.57-4.55,5.37-8.34,11.35-12.76,16.83-2.31,2.87-4.84,5.63-7.99,7.54-2.77,1.67-6,2.66-8.34,4.88-.25.23-.49.49-.58.82-.18.66.34,1.35.98,1.57.64.23,1.35.1,2.01-.07,3.97-1.03,7.35-3.69,10.05-6.79,2.69-3.1,4.8-6.65,7.08-10.06,7.9-11.84,18.97-21.93,32.52-27.15,5.12-1.97,11.87-3.11,17.19-1.24,5.19,1.82,9.35,7.45,12.49,11.67,5.8,7.78,12.27,14.41,19.19,21.18,7.17,7,14.29,14.38,23.16,19.26,9.72,5.35,21.06,7.61,31.84,9.71,11.74,2.27,23.74,3.42,36.01,3.42s25.94-1.76,41.01-5.26c15.07-3.51,29.18-10.34,42.32-20.5,13.14-10.17,24.09-24.54,32.86-43.11,8.76-18.58,13.14-42.94,13.14-73.08v-45.76c0-45.82,6.65-98.51-23.01-137.42-12.27-16.09-28.98-28.11-46.65-37.64-15.6-8.41-33.91-12.62-54.94-12.62-17.88,0-34.7,3.34-50.47,9.99-15.77,6.66-29.54,15.6-41.27,26.81-11.71,11.19-21.18,24.69-27.86,39.43-6.83,15.07-10.25,31.2-10.25,48.37s3.42,33.3,10.25,48.37c6.83,15.08,16.12,28.31,27.86,39.69,11.74,11.39,25.5,20.33,41.27,26.82,15.77,6.49,32.6,9.73,50.47,9.73,21.03,0,39.34-4.21,54.94-12.62,15.59-8.41,27.95-19.98,37.07-34.7h1.05v33.65c0,4.56-.18,10.52-.52,17.88-.35,7.36-1.5,15.16-3.42,23.39-1.93,8.23-4.91,16.47-8.94,24.71-4.03,8.23-9.64,15.77-16.83,22.61-7.19,6.84-16.3,12.36-27.34,16.56-11.04,4.21-24.63,6.31-40.75,6.31-18.39,0-36.77-3.67-53.63-11.04l-39.91-17.76Z"/>
    <path class="cls-10" d="M375.29,291.64c0-13.32-2.55-25.84-7.62-37.59-5.08-11.74-11.92-21.9-20.5-30.49-8.59-8.58-18.75-15.42-30.49-20.51-11.75-5.08-24.28-7.62-37.59-7.62-20.68,0-40.97,6.2-59.31,15.44-15.36,7.74-31.52,16-39.79,31.96-12.71,24.5-8.92,49.94,1.15,74.47,7.97,19.41,20.04,37.04,37.02,49.63,7.21,5.35,15.11,9.74,23.35,13.3,11.74,5.08,24.27,7.62,37.59,7.62s25.85-2.54,37.59-7.62c11.74-5.08,21.9-11.91,30.49-20.51,8.59-8.58,15.42-18.74,20.5-30.49,5.08-11.74,7.62-24.27,7.62-37.59"/>
    <path class="cls-8" d="M219.29,227.81c-9.18-2.14-21.59,17.24-26.9,30.88-5.87,15.07-9.18,38.79-.61,43.26,8.49,4.42,28.31-10.21,35.31-28.74,7.12-18.85,1.54-43.22-7.8-45.4Z"/>
  </g>
  <text class="cls-7" transform="translate(479.75 252.35)"><tspan class="cls-6"><tspan class="cls-5" x="0" y="0">F</tspan><tspan class="cls-3" x="107.23" y="0">r</tspan><tspan class="cls-4" x="177.25" y="0">ankfo</tspan><tspan class="cls-2" x="687.7" y="0">r</tspan><tspan class="cls-4" x="765.82" y="0">t</tspan><tspan class="cls-9" x="833.5" y="0"> </tspan></tspan><tspan class="cls-1"><tspan x="0" y="200">Lab</tspan></tspan></text>
</svg>