<?xml version="1.0" encoding="UTF-8"?>
<svg id="social_media_logos" data-name="social media logos" xmlns="http://www.w3.org/2000/svg" viewBox="0 0 50 50">
  <defs>
    <style>
      .cls-1 {
        fill: #fff;
      }
    </style>
  </defs>
  <g id="GitHub">
    <path class="cls-1" d="M25,.39C11.19.39,0,11.58,0,25.39c0,11.71,8.07,21.52,18.94,24.23-.12-.34-.19-.73-.19-1.21v-4.27h-3.14c-1.71,0-3.23-.74-3.97-2.1-.82-1.52-.96-3.84-2.99-5.26-.6-.47-.14-1.01.55-.94,1.28.36,2.34,1.24,3.34,2.55,1,1.31,1.46,1.6,3.32,1.6.9,0,2.25-.05,3.52-.25.68-1.74,1.86-3.33,3.31-4.09-8.33-.86-12.3-5-12.3-10.62,0-2.42,1.03-4.76,2.78-6.74-.58-1.96-1.3-5.95.22-7.47,3.75,0,6.01,2.43,6.55,3.09,1.87-.64,3.92-1,6.07-1s4.22.36,6.09,1.01c.54-.65,2.8-3.09,6.56-3.09,1.53,1.52.79,5.53.21,7.49,1.74,1.97,2.77,4.3,2.77,6.72,0,5.62-3.97,9.76-12.28,10.62,2.29,1.19,3.96,4.55,3.96,7.07v5.7c0,.22-.05.37-.07.56,9.74-3.41,16.74-12.66,16.74-23.57C50,11.58,38.81.39,25,.39Z"/>
  </g>
</svg>