<?xml version="1.0" encoding="UTF-8"?>
<svg id="social_media_logos" data-name="social media logos" xmlns="http://www.w3.org/2000/svg" viewBox="0 0 50 50">
  <defs>
    <style>
      .cls-1 {
        fill: #fff;
      }
    </style>
  </defs>
  <g id="Instagram">
    <path class="cls-1" d="M35.1,0H14.9C6.67,0,0,6.67,0,14.9v20.21c0,8.22,6.67,14.89,14.9,14.9h20.21c8.22,0,14.89-6.67,14.9-14.9V14.9C49.99,6.67,43.33,0,35.1,0ZM44.97,35.1c0,5.45-4.42,9.87-9.87,9.87H14.9c-5.45,0-9.87-4.42-9.87-9.87h0V14.9c0-5.45,4.41-9.86,9.86-9.87h20.21c5.45,0,9.86,4.42,9.87,9.87v20.21Z"/>
    <path class="cls-1" d="M25,12.07c-7.13,0-12.93,5.8-12.93,12.93s5.8,12.93,12.93,12.93,12.93-5.8,12.93-12.93-5.8-12.93-12.93-12.93ZM25,32.9c-4.36,0-7.9-3.53-7.9-7.9,0-4.36,3.53-7.9,7.9-7.9,4.36,0,7.9,3.53,7.9,7.9,0,4.36-3.53,7.9-7.9,7.9ZM37.95,9.07c1.71,0,3.1,1.39,3.1,3.1,0,1.71-1.39,3.1-3.1,3.1-1.71,0-3.09-1.39-3.1-3.1,0-1.71,1.16-3.1,3.1-3.1Z"/>
  </g>
</svg>