<?xml version="1.0" encoding="UTF-8"?>
<svg id="social_media_logos" data-name="social media logos" xmlns="http://www.w3.org/2000/svg" viewBox="0 0 50 50">
  <defs>
    <style>
      .cls-1 {
        fill: #fff;
      }
    </style>
  </defs>
  <path id="LinkedIn" class="cls-1" d="M5.68,0C2.57,0,0,2.57,0,5.68v38.64C0,47.43,2.57,50,5.68,50h38.64c3.11,0,5.68-2.57,5.68-5.68V5.68C50,2.57,47.43,0,44.32,0H5.68ZM5.68,4.55h38.64c.65,0,1.14.49,1.14,1.14v38.64c0,.65-.49,1.14-1.14,1.14H5.68c-.65,0-1.14-.49-1.14-1.14V5.68c0-.65.49-1.14,1.14-1.14ZM12.36,8.45c-2.16,0-3.91,1.75-3.91,3.91s1.75,3.91,3.91,3.91,3.91-1.75,3.91-3.91-1.75-3.91-3.91-3.91ZM32.88,18.82c-3.26,0-5.42,1.78-6.32,3.48h-.14v-2.98h-6.39v21.59h6.68v-10.65c0-2.81.56-5.54,4.05-5.54s3.48,3.18,3.48,5.68v10.51h6.68v-11.86c0-5.81-1.23-10.23-8.03-10.23ZM9.09,19.32v21.59h6.75v-21.59h-6.75Z"/>
</svg>