<?xml version="1.0" encoding="UTF-8"?>
<svg id="scRNA-seq" xmlns="http://www.w3.org/2000/svg" viewBox="0 0 724 655">
  <defs>
    <style>
      .cls-1 {
        fill: #fff;
      }
    </style>
  </defs>
  <path class="cls-1" d="M454.6,16.35c-71.97,4.6-122.79,32.1-164.33,88.94-9.86,13.54-22.23,23.66-35.78,29.42-12.71,5.35-24.74,7.52-61.19,11.12-41.12,4.01-60.1,10.2-88.6,28.75-49.9,32.43-76.98,76.98-84.42,138.84-2.84,23.66-2.51,55.59.84,78.15,6.52,43.88,23.91,85.76,50.74,122.12,3.34,4.51,6.52,8.19,6.94,8.28,1,0,17.14-15.97,17.14-17.05,0-.33-2.76-4.43-6.19-9.11-20.23-27.83-34.94-61.02-41.79-94.29-3.68-17.8-4.93-31.09-4.93-52.16.08-37.03,5.52-64.86,17.47-89.86,8.11-16.88,16.63-28.75,30.51-42.29,17.97-17.47,41.79-32.77,60.68-38.78,14.71-4.76,21.82-5.93,54.08-9.19,26.91-2.76,37.11-4.43,49.73-8.53,21.98-7.02,39.95-20.4,55.25-41.21,35.86-48.65,76.06-71.55,136.5-77.82,17.05-1.76,52.91-1.25,66.62.92,37.36,5.85,65.7,17.89,90.02,38.28,18.31,15.46,32.6,34.52,45.05,60.35,19.56,40.62,29.51,88.18,32.18,154.89,3.59,88.52-14.79,156.47-57.67,212.9-7.52,9.95-31.01,33.77-41.04,41.71-43.88,34.69-96.12,54.92-160.07,61.94-103.15,11.28-210.39-11.03-273.24-57.01-4.1-2.93-7.86-5.6-8.36-5.77s-4.85,3.59-9.61,8.36l-8.61,8.69,8.86,6.52c48.15,35.78,112.17,57.26,193.17,64.86,15.3,1.42,75.56,1.42,89.44,0,37.61-3.84,63.78-9.03,90.19-17.89,66.7-22.23,119.86-63.28,155.14-119.7,24.16-38.53,38.78-83.34,44.89-137.58,1.84-16.05,2.09-72.64.42-92.36-5.85-69.13-19.39-119.19-43.13-159.07-41.54-69.54-110.75-101.47-206.88-95.37Z"/>
  <path class="cls-1" d="M540.61,172.99c-13.46,2.51-28.42,9.11-39.29,17.14-7.02,5.18-17.97,16.55-22.48,23.24-25.24,37.53-21.31,87.85,9.53,120.45,32.68,34.6,84.92,40.12,124.96,13.21,16.8-11.37,31.85-31.85,37.45-51.16,5.43-18.56,5.18-40.12-.75-58.18-10.28-31.35-35.02-54.5-67.62-63.19-10.03-2.67-31.68-3.43-41.79-1.5Z"/>
  <path class="cls-1" d="M245.96,186.11c-33.43,3.76-68.29,17.89-95.04,38.45-58.18,44.89-85.76,118.78-71.22,191.16,5.77,28.59,18.72,56.92,36.61,79.83l3.84,5.02-4.18,4.26c-3.34,3.43-4.76,4.26-6.35,3.93-1.09-.17-3.43-.08-5.1.25-2.76.5-8.19,5.6-45.14,42.46-23.15,23.07-42.04,42.29-42.04,42.8s7.52,8.36,16.72,17.55l16.72,16.72,42.21-42.21c44.22-44.22,44.97-45.05,43.55-50.49-.33-1.42.59-2.84,4.1-6.35l4.51-4.43,4.01,3.34c19.14,15.8,46.06,28.92,72.55,35.44,17.3,4.26,26.66,5.27,46.39,5.27s29.09-1,46.39-5.27c63.61-15.63,115.1-63.02,135.74-125.05,18.81-56.42,10.95-118.36-21.31-167.34-11.03-16.63-27.67-34.6-43.63-46.89-27.33-20.98-61.77-34.77-96.46-38.53-9.53-1.09-33.35-1-42.88.08ZM291.69,218.96c16.3,2.42,29.84,6.69,45.64,14.29,39.45,18.89,69.13,52.83,82.83,94.45,31.01,94.45-31.35,193.92-130.4,208.05-11.12,1.59-32.18,1.59-43.3,0-63.69-9.11-115.6-54.5-132.57-116.19-15.63-56.76,1-116.69,43.63-157.64,13.04-12.45,23.91-20.06,40.21-28.17,28.92-14.46,61.94-19.64,93.95-14.79ZM132.29,513.61l5.85,5.85-3.59,3.51-3.51,3.59-6.02-6.02-6.02-6.1,3.26-3.34c1.76-1.84,3.51-3.34,3.76-3.34s3.09,2.67,6.27,5.85Z"/>
  <path class="cls-1" d="M178.93,266.19c-5.93,3.59-6.85,10.03-2.34,16.63,4.43,6.35,5.1,11.12,3.93,26.33-2.59,33.18-.5,43.88,10.62,54.16,7.86,7.27,17.8,10.2,32.93,9.7,4.51-.17,8.11-.08,8.11.17s-2.26,2.67-5.02,5.43c-6.69,6.6-6.85,11.28-.42,11.28,2.09,0,4.01-1.5,11.7-9.28l9.19-9.19,7.69.25c4.18.17,7.94.5,8.28.92.33.33-6.44,7.69-15.05,16.38-13.79,13.88-15.63,16.05-15.13,17.8.75,2.42,1.17,2.84,3.59,3.59,1.76.5,3.93-1.42,18.14-15.46,11.45-11.45,16.3-15.71,16.8-14.96.33.59.84,4.26,1,8.11l.42,7.02-9.86,9.86c-10.11,10.11-11.37,12.37-8.78,15.46,2.17,2.67,5.27,1.5,10.87-4.18,2.93-3.01,5.6-5.43,5.85-5.43s.33,4.18.17,9.28c-.5,16.47,2.51,26.58,10.03,34.35,9.78,9.95,22.99,12.45,52.16,9.78,16.05-1.42,23.32-.25,28.5,4.51,2.93,2.67,9.19,2.84,12.79.42,6.1-4.18,6.44-12.12.75-17.64-7.19-6.77-16.97-9.78-32.01-9.78h-9.11l5.1-5.35c2.84-2.93,5.18-6.1,5.18-6.94,0-2.59-2.01-4.68-4.51-4.68-1.84.08-4.26,1.92-11.7,9.36l-9.28,9.28h-7.1c-3.93,0-7.69-.42-8.36-.84-1-.59,1.92-4.01,14.46-16.63,13.79-13.79,15.71-16.05,15.21-17.8-.67-2.17-2.67-4.01-4.51-4.01-.67,0-8.53,7.19-17.39,16.05-8.86,8.78-16.3,15.8-16.63,15.55-.92-.92-2.01-6.85-2.01-11.12v-4.1l10.03-10.11c8.28-8.44,10.03-10.62,10.03-12.62,0-3.09-1.34-4.51-4.1-4.51-1.5,0-3.93,1.76-8.19,6.02l-6.1,6.02v-11.37c0-17.72-2.51-25.83-10.36-33.77-8.11-8.02-16.88-10.7-34.69-10.53l-12.12.08,6.44-6.44c4.6-4.68,6.44-7.1,6.44-8.61,0-2.76-1.42-4.1-4.51-4.1-2.01,0-4.26,1.84-13.04,10.45-9.03,8.94-10.95,10.45-13.12,10.45-3.84,0-11.03-1.67-11.62-2.67-.33-.5,6.69-8.02,15.46-16.88,8.78-8.78,15.97-16.55,15.97-17.3,0-1.84-1.76-3.84-4.01-4.51-1.76-.5-3.93,1.34-17.72,15.05-12.04,12.04-15.8,15.3-16.22,14.21-.25-.75-.5-4.68-.5-8.69v-7.19l8.44-8.36c9.45-9.36,10.62-11.37,8.69-14.29-2.17-3.34-4.93-2.59-10.53,2.76l-4.93,4.68v-8.69c0-13.12-2.93-22.9-8.86-29.92-4.35-5.18-10.11-6.52-15.13-3.43Z"/>
</svg>