<?xml version="1.0" encoding="UTF-8"?>
<svg id="Serotonin" xmlns="http://www.w3.org/2000/svg" viewBox="0 0 929 655">
  <defs>
    <style>
      .cls-1 {
        fill: #fff;
      }
    </style>
  </defs>
  <path class="cls-1" d="M763,39.37v27.8h9.2l-.3-19.9c-.2-11-.3-19.9-.3-19.8.1.1,6.3,8.7,13.8,19.1,7.5,10.3,13.6,19.2,13.6,19.7s2,.9,4.5.9h4.5l-.2-27.7-.3-27.6h-4.4c-2.5,0-4.6.4-4.8.9-.1.5.1,9.3.5,19.7.4,10.3.4,18.7,0,18.7-.5,0-.8-.3-.8-.8,0-.4-6-9.2-13.2-19.6l-13.3-18.9-4.3-.1-4.2-.1v27.7Z"/>
  <path class="cls-1" d="M819.4,12.07c-.2.2-.4,12.7-.4,27.8v27.3h10v-25h26v25h9V11.57l-4.5.1h-4.5v23.5h-25.9l-.3-11.6-.3-11.7-4.3-.1c-2.4,0-4.6.1-4.8.3Z"/>
  <path class="cls-1" d="M880.4,40.07c-2.4,1-5.4,4.8-5.4,6.8,0,2.2,5.3,1.9,7.7-.5,2.7-2.7,5.4-2.8,7.8-.2,2.9,3.2,1.2,6.4-8,14.2-6.7,5.8-8.4,7.9-8.5,10v2.8h25v-6h-14.7l6.9-6.8c6.2-6.3,6.8-7.2,6.8-11,0-6.3-3.2-9.4-10.1-9.8-3-.2-6.4,0-7.5.5Z"/>
  <path class="cls-1" d="M760.6,85.07c-12.5,41.8-21,70.6-23.1,78.1-1.5,5.2-3,9.8-3.4,10.3-.4.4-13.5,3.6-29.2,7.2-15.6,3.5-41.4,9.4-57.4,13-15.9,3.7-32.6,7.4-37,8.4l-8,1.7-4.2,12c-6.4,17.8-28.9,83.8-34.4,100.8-2.7,8.2-5.6,15.7-6.5,16.7-.9.9-3.9,2.3-6.7,3-7.4,1.7-107.7,36-113.7,38.8-2.4,1.1-3.7.6-16-6.5-7.4-4.3-23.2-13.2-35-19.9s-31.7-18.1-44.3-25.3c-12.5-7.3-23.2-13.2-23.8-13.2-.5,0-15.5,8.6-33.2,19.1-17.7,10.6-42.1,25-54.2,32.2-12.1,7.1-23.4,14-25.2,15.3-1.7,1.3-3.6,2.4-4.2,2.4s-17.6-9.4-37.9-20.9c-20.2-11.6-37.4-21.2-38.2-21.5-1-.4-2.1.6-3.1,2.6l-1.6,3.3,7.1,4.1c3.9,2.2,21.2,11.9,38.4,21.4l31.2,17.4v129.1l2.3,1.1c2.3,1.1,85,51,104.2,62.9,6.1,3.7,11.5,6.8,12,6.7,1.5,0,21.1-11.4,91.1-53.1l27.1-16.2,3.4,1.6c1.9.8,15.1,4.9,29.4,8.9,32.9,9.4,56.5,16.3,58.6,17.1,2.2.8,3.6-4.2,1.7-6.1-.7-.7-18.8-6.3-40.3-12.5-21.4-6.1-41.4-11.9-44.2-12.7l-5.3-1.5v-128.2l8.3-3.3c4.6-1.8,24.3-8.6,43.8-15.1,56.7-19,70.9-24.1,71-26,0-.9.9.2,1.8,2.4,1,2.2,8.4,13.2,16.4,24.5s24.3,34.4,36.2,51.3l21.7,30.8-1.8,2.7c-1.8,2.9-15.4,21.5-30.7,42.2-5.1,6.8-10.6,14.6-12.4,17.2l-3.2,4.8,2.9,1.5,2.8,1.5,18.9-25.3c10.4-13.8,22-29.4,25.7-34.5l6.8-9.3-5.7-8.7c-3.2-4.7-12.4-17.9-20.5-29.2-8-11.3-22.7-32-32.5-46s-18.7-26.7-19.8-28.1l-1.9-2.7,3.2-8.3c1.8-4.6,8.6-23.9,15-42.9,6.5-19,14.7-42.8,18.3-53l6.5-18.5,6.3-1.6c3.5-1,18.6-4.4,33.4-7.8,54.6-12.3,92.8-21.1,93-21.3.1-.2,2.5-8,5.3-17.3,2.8-9.4,8.9-29.9,13.6-45.7,4.7-15.7,8.6-29.3,8.6-30,0-.8-1.6-1.9-3.5-2.5-2.9-.9-3.5-.8-3.9.6ZM328.9,324.57c11.9,7.1,36.9,21.4,63.1,36.1,9.6,5.4,22,12.4,27.5,15.5l10,5.7.3,65.6.2,65.6-3.7,1c-2.1.6-15.3,7.7-29.3,15.9s-35.8,20.8-48.5,28.2c-12.6,7.3-24.9,14.7-27.3,16.4-4.2,2.9-4.5,3-7,1.5-1.5-.9-23.8-14.4-49.7-30-25.8-15.7-50-30.2-53.7-32.3l-6.6-3.9-.4-60.6c-.2-33.3-.2-61.4.1-62.4.2-1,2.2-2.7,4.5-3.9,6-3,34-19.6,74.1-43.7,19.3-11.6,35.2-21,35.4-21.1.2,0,5.1,2.9,11,6.4Z"/>
  <path class="cls-1" d="M306,339.87c-2.5,1.4-9,5.4-14.5,8.9-5.5,3.4-12.7,7.8-16,9.7-9.2,5.2-49.7,29.8-52.2,31.6-2.7,1.9-2.8,2.9-.5,5.8l1.7,2.2,7.5-4.5c4.1-2.5,11.6-7.2,16.5-10.3,5-3.2,21.8-13.4,37.4-22.6,15.6-9.3,28.5-17.5,28.8-18.2.5-1.3-2.4-5.4-3.6-5.2-.3.1-2.6,1.2-5.1,2.6Z"/>
  <path class="cls-1" d="M410,394.37c0,.2-.3,24.3-.7,53.5l-.6,53.3h8.3l-.2-53.3-.3-53.2-3.2-.3c-1.8-.2-3.3-.2-3.3,0Z"/>
  <path class="cls-1" d="M222.6,501.67c-.9,1.3-1.6,2.8-1.6,3.2s3.3,2.6,7.3,4.9c3.9,2.3,16.9,9.7,28.7,16.6,48.2,28,55.2,32,55.4,31.6,1.6-2.1,3.6-5.4,3.6-5.9,0-.3-2.4-1.9-5.2-3.4-8.4-4.5-38.1-21.6-40.8-23.5-3.1-2.1-44.7-26-45.3-26-.3,0-1.2,1.1-2.1,2.5Z"/>
  <path class="cls-1" d="M18,315.67v23.5h8v-21h22v21h8v-47h-8v19h-22v-19h-8v23.5Z"/>
  <path class="cls-1" d="M78.3,293.77c-4.6,2.3-10,8.6-11.2,13.1-4,14.2,2.4,29.1,13.7,32.3,11.5,3.2,21.6-1.5,26.2-12.2,3.2-7.5,2.6-18.6-1.5-25-4.3-6.9-8.5-9.2-16.9-9.6-5.1-.2-8,.2-10.3,1.4ZM94.2,301.97c3.9,2.3,5.8,7,5.8,14.4,0,10.6-5.1,16.5-13.6,15.5-7.5-.8-11.5-6.1-11.6-15.6-.1-7.9,2.4-12.8,7.6-15.2,4.4-1.9,7.2-1.7,11.8.9Z"/>
  <path class="cls-1" d="M555.5,364.37c-1.4,1.1-2.4,2.6-2.1,3.3.2.7,4.4,6.7,9.3,13.3,4.8,6.5,16.1,22.2,25,34.8s17.4,24.4,19,26.3l2.9,3.4,2.8-2.5,2.8-2.4-2.4-2.9c-3.1-3.8-14.6-19.5-36.9-50.7l-17.7-24.7-2.7,2.1Z"/>
  <path class="cls-1" d="M545,552.37v23.8h8.2l-.4-16.4c-.2-9.1-.1-16.3.3-16.1.9.6,18.3,24.6,20.5,28.3,1.9,3.2,4.7,4.7,7.9,4,1.4-.3,1.6-2.9,1.6-23.6,0-12.7-.3-23.2-.6-23.2h-7.7l.7,16.7.7,16.8-9.7-14c-13.2-19.1-14.1-20-18.1-20h-3.4v23.7Z"/>
  <path class="cls-1" d="M545,615.17v24h8v-21h22.5v20.5h7.6v-47h-7.6l-.1,9.5-.2,9.5-11.1.3-11.1.3v-20.1h-8v24Z"/>
</svg>