<?xml version="1.0" encoding="UTF-8"?>
<svg id="Vasculature" xmlns="http://www.w3.org/2000/svg" viewBox="0 0 621 725.5">
  <defs>
    <style>
      .cls-1 {
        fill: #fff;
      }
    </style>
  </defs>
  <path class="cls-1" d="M178.95,26.9c-2.2,1.3-3.5,3.1-4.2,5.7-.6,2.1-2.3,16.8-3.8,32.8-2.3,25-2.7,34.1-2.7,66-.1,48.7,2.2,76.8,9.1,113.2,1.5,7.9,2.3,14.6,1.9,15-.4.5-11.2.8-23.9.8-21.6-.1-24-.3-35.6-2.9-23.5-5.2-49.5-16.5-64.6-28-12.1-9.2-12.7-9.6-16.1-9.6-2.3,0-4.4.9-6.6,2.9-2.8,2.5-3.3,3.6-3.3,7.5,0,5.9,2.5,8.5,17.9,18.7,13.7,9.1,30,17.3,43.6,22,5.2,1.8,9.7,3.4,9.9,3.5.7.6-9.6,12.9-15,17.9-13,12.3-29.9,20-47.9,22.1-8.7,1-12.5,4.3-12.5,10.9,0,4,.5,5.1,3.4,7.7,3.3,3,3.5,3,11,2.3,21.9-2,41.8-11.2,59.1-27.2,6.7-6.2,22.2-24.5,23.2-27.3.3-.9,2-1,7.4-.1,12.9,2,29.4,2.4,41.9,1.1,6.6-.6,12.4-1.3,12.8-1.3.5-.1,3.2,7,6.1,15.8,8,24.3,20.7,52.7,32.7,73.1,8.1,13.9,24,36.2,35.7,50.1,2.6,3.1,4.2,5.9,3.9,6.8-.4.8-2.2,3.6-4.2,6.3l-3.6,4.8-13.9,1.2c-47.1,4.1-87,18.7-115.6,42.4-12.5,10.4-14.6,14.7-10.4,21.5,2.2,3.7,6.9,5.4,11.3,4.2,1.5-.4,5.9-3.7,9.8-7.3,15.8-14.7,38.6-26.2,65.9-33.5,11.9-3.2,28.7-6.1,35.2-6.1h3.7l-12.9,19.5c-16.4,24.7-24.6,37.8-40,63.9-11.5,19.6-12.2,21.1-11.7,25,.7,5.1,4.4,8.6,9.2,8.6,5.7,0,8-1.8,13-10.4,25.2-43,41.7-69.2,73.6-116.7,13.4-19.8,15.9-24.2,15.9-27.3s-1.2-4.9-10.1-14.9c-33-36.7-54.3-75.2-69.4-125.2-11.7-38.8-17-76.4-19.1-137.5-.8-25,1.8-74.9,5.2-99.6,1.4-10.3,1.4-11.5-.1-14.4-1.6-3.1-6.6-6-10.2-6-1,0-3.2.9-5,2Z"/>
  <path class="cls-1" d="M266.85,34.4c-3.4,2.9-4.8,7.8-7.8,27-2.3,15.1-2.3,47.1,0,61.8,4.4,27.9,14,47.9,28.2,58.9,11.1,8.5,22.3,13,47,18.6,24.2,5.6,42.9,12.4,66.9,24.4,28.2,14.1,55.7,35.1,72.8,55.6,11.4,13.6,26.8,39.3,33.6,56,1.4,3.5,5.5,6.2,9.3,6.2s8.5-3.5,9.7-7.3c1.5-4.3.1-8.7-7.7-24.7-20.6-42.4-62.5-82.5-111.4-106.6l-7.7-3.8,8.7-5.1c4.8-2.8,11.4-7.1,14.7-9.4l6-4.3,6.9.7c9.4.9,23.8,4.7,32.5,8.5,8.3,3.6,11.4,3.4,15.4-.8,3.5-3.7,4.2-7.3,2.2-11.5-2.4-5.2-11.9-9.2-33.8-14.1l-2.8-.7,2.8-3.3c1.5-1.9,6-7.2,9.9-11.8,8.7-10.3,9.8-12.1,9.1-16.6-.8-4.3-2.9-6.8-7.3-8.2-5.6-1.9-9.3,0-15,7.7-16.1,22-37.7,39.9-63.7,53-10,5-11.3,5.4-14.6,4.5-46.1-12.3-51.3-13.9-62.5-19.2-8.7-4.1-14.1-9.5-18.7-18.5-12.2-23.5-14.8-57.6-7.6-97.1,2.6-14.2,2.2-17.5-2.6-20.4-4.4-2.7-8.9-2.5-12.5.5Z"/>
  <path class="cls-1" d="M221.05,201.4c-4.2,1.8-6.4,5.1-6.4,9.8,0,9.7,5.4,39.2,10.1,55.7,6.6,22.6,24,61.6,29.6,66,6,4.7,15.7.7,16.9-7.1.5-3.1-.1-4.9-4.1-11.8-14.6-25.3-24.7-56.1-29.9-91-1.4-8.7-2.9-16.9-3.5-18-2.1-3.9-8.1-5.6-12.7-3.6Z"/>
  <path class="cls-1" d="M291.95,247.3c-1.7,1.5-3.4,4-3.8,5.6-1.7,7.7,11.5,41.2,27.5,69.5,12.1,21.6,24.1,39,57.6,83.5,17.6,23.4,34.5,46.9,37.7,52.2,16.1,27,27.7,61.4,30.7,90.7,1.5,14.9,1.2,44.4-.5,60.1-2.7,24-8.1,52.4-13.2,68.8-1.4,4.8-2.8,10.9-3.1,13.5-.3,4.3-.1,5.2,2.3,7.7,3.3,3.4,7,4.2,11.2,2.5,4.5-1.9,5.8-4.4,9.8-19,9.1-33.4,15.5-78.3,15.5-109.4,0-10.3-1.5-31.2-2.6-36-.5-2.2-.3-2.2,3.8,1,7.8,6.1,35.3,34.2,42,42.9,14.4,18.6,25.2,38.2,29.8,54,2.7,9.1,6.2,13,11.6,13,4.7,0,10.4-5.3,10.4-9.8,0-8.3-12.2-35.6-23.9-53.5l-7-10.7h3.3c13.8,0,32.6,6.7,38.6,13.8,7.7,9,8,9.2,12.4,9.2,4.9,0,7.9-1.8,9.6-5.9,2.2-5.3.6-9.5-6.7-17.2-13.1-13.9-34.2-20.8-63.7-20.9h-10.9l-13.1-12.8c-7.2-7-20-18.7-28.5-25.9l-15.5-13.3-3.3-9.2c-4.1-11.6-15.2-34.5-22.7-46.8-6.4-10.5-20.6-30.3-45.1-63-27.8-37-33.4-45.1-45.3-65.5-9.9-17.1-25.1-48.9-23.9-50.1.8-.9,21,3.8,31.3,7.2,20.8,6.9,40.3,17.4,60.2,32.4,15,11.3,23.9,19.6,38.2,35.9,6.5,7.3,13,13.8,14.8,14.7,6.8,3.2,13.9-.8,14.9-8.3.4-3.4,0-4.5-3.5-9-6.1-7.6-35.5-36.9-45.2-45-34.5-28.7-78.9-47.3-117-49-11.4-.5-11.6-.5-14.7,2.1Z"/>
  <path class="cls-1" d="M374.85,462.4c-3.8,1.7-6.7,7.4-5.7,11.3.3,1.3,3.3,5.6,6.6,9.6,15.4,18.1,23.6,35.9,27.5,58.7,1.3,8.2,1.6,14,1.1,28.8l-.5,18.4,2.8,2.9c3.9,3.9,9.8,3.9,14,0,2.7-2.4,3.1-3.6,4.1-12.2,4.7-39.3-9.7-85.5-35.1-112.2-6.1-6.5-9.5-7.7-14.8-5.3Z"/>
  <path class="cls-1" d="M307.25,471.1c-4.2,4-18.6,21.7-31.6,39.3-23.6,31.6-37.7,54-55.5,87.9-9.2,17.5-9.8,21.1-4.6,25.8,3.6,3.2,9.2,3.8,12.8,1.3,1.1-.8,5.3-7.9,9.1-15.7,15.9-32.3,41.9-72.3,68.4-105.1,4.4-5.3,8.2-9.7,8.6-9.7,1.1.1,9.2,10.4,14.4,18.2,5.5,8.2,9.6,17.7,13.3,30.3,4.9,17.1,6,26.1,5.9,51.5,0,20.8-.4,25.4-2.8,40.5-4.4,26.6-4.4,26.9-.8,30.5,5.6,5.5,14.7,3.3,17.1-4.3,1.2-3.8,4.5-24.2,6.2-38.2,1.9-15.5,1.7-48.8-.4-62-5.8-37.1-17.5-61.3-40.5-83.8-8.3-8.1-9.2-8.7-13-8.7-2.8,0-4.8.7-6.6,2.2Z"/>
</svg>